:SAMPLES-PER-SECOND 30
:FULLY-SPECIFIED
:DEGREES
274
root  41.0829 40.2621 -3.00276 -34.2346 -86.1828 46.2846
RightUpLeg  -22.4949 -9.84066 -5.186
RightLeg  4.90701 -6.48012 5.84896
RightFoot  7.5743 0.900976 -5.09009
RightToes  2.32829e-010 0 -3.6325e-017
Spine  36.1142 -2.37007 6.9655
Spine1  -10.0893 -0.145082 -4.81917
HEad  -38.9686 -0.0956101 -2.2191
LeftShoulder1  6.51623 -16.9448 -25.6603
LeftArm  -51.2147 -27.0722 -2.91584
LeftForeArm  -0.847915 -34.35 -7.73004
LeftHand  -0.244104 0.0205437 5.32207
RightShoulder  3.62321 10.5299 19.381
RightArm  -31.4712 23.8625 10.2191
RightForeArm  -41.7962 40.735 11.6889
RightHand  -0.502728 -1.76898 -15.9497
LeftUpLeg  -17.8415 4.85456 3.6389
LeftLeg  -3.9243 14.8092 -6.72323
LeftFoot  10.7867 -0.122869 0.291249
LeftToes  1.42787e-010 7.94111e-011 2.6399e-011
275
root  41.0414 40.2605 -3.00618 -29.2736 -85.9443 41.1114
RightUpLeg  -22.0568 -9.94791 -5.22492
RightLeg  4.83818 -6.87028 5.92312
RightFoot  7.33255 0.89818 -5.14989
RightToes  2.32829e-010 0 -3.6325e-017
Spine  36.1437 -2.38229 6.75224
Spine1  -9.44001 -0.232063 -4.23792
HEad  -39.177 0.276822 -2.37598
LeftShoulder1  7.37529 -16.8064 -30.2352
LeftArm  -45.012 -20.5709 -5.50827
LeftForeArm  0.975091 -36.219 -8.15785
LeftHand  -0.244104 0.0205437 5.32207
RightShoulder  4.08583 10.505 22.9455
RightArm  -22.8348 16.8137 12.8061
RightForeArm  -41.3752 39.1422 11.1095
RightHand  -0.414346 -2.23333 -15.0111
LeftUpLeg  -17.7551 4.59948 3.55543
LeftLeg  -3.60285 14.7425 -6.31117
LeftFoot  10.2449 -0.125582 0.333104
LeftToes  1.42787e-010 7.94111e-011 2.6399e-011
276
root  41.0423 40.2527 -2.9854 -24.8906 -85.5672 36.7831
RightUpLeg  -22.1139 -10.1154 -5.32746
RightLeg  5.06515 -7.22013 5.9435
RightFoot  7.08999 0.865637 -5.02849
RightToes  2.32829e-010 0 -3.6325e-017
Spine  36.2358 -2.42507 6.33393
Spine1  -8.86722 -0.4786 -3.42114
HEad  -39.6473 0.883841 -2.39149
LeftShoulder1  8.15163 -16.6198 -34.4378
LeftArm  -40.6838 -13.8911 -7.46529
LeftForeArm  1.89534 -36.6424 -8.23024
LeftHand  -0.244104 0.0205437 5.32207
RightShoulder  4.44908 10.5428 25.5742
RightArm  -13.0431 8.82248 15.8443
RightForeArm  -41.594 37.2141 10.4642
RightHand  -0.32204 -2.89898 -14.6424
LeftUpLeg  -18.2834 4.34237 3.39404
LeftLeg  -2.79343 14.5371 -5.87918
LeftFoot  9.77298 -0.132358 0.40205
LeftToes  1.42787e-010 7.94111e-011 2.6399e-011
277
root  41.0878 40.224 -2.9515 -21.941 -85.1259 34.1325
RightUpLeg  -22.6532 -10.3276 -5.48238
RightLeg  5.52836 -7.49222 5.91536
RightFoot  6.84064 0.803214 -4.72105
RightToes  2.32829e-010 0 -3.6325e-017
Spine  36.5415 -2.53972 5.92647
Spine1  -8.56124 -0.795579 -2.85851
HEad  -40.2529 1.47646 -2.18118
LeftShoulder1  8.72742 -16.3099 -37.888
LeftArm  -36.0183 -7.16635 -8.8587
LeftForeArm  2.2432 -36.6312 -8.20659
LeftHand  -0.244104 0.0205437 5.32207
RightShoulder  4.84137 10.715 28.0377
RightArm  -3.13244 -0.491023 18.8346
RightForeArm  -41.5796 35.8771 10.0367
RightHand  -0.242207 -3.56799 -14.7822
LeftUpLeg  -19.2986 4.18867 3.19134
LeftLeg  -1.6318 14.1872 -5.57936
LeftFoot  9.21448 -0.140938 0.466532
LeftToes  1.42787e-010 7.94111e-011 2.6399e-011
278
root  41.1876 40.1744 -2.88681 -19.7726 -84.8355 32.3359
RightUpLeg  -23.4043 -10.5105 -5.5916
RightLeg  5.99508 -7.7459 5.88686
RightFoot  6.77709 0.787855 -4.64404
RightToes  2.32829e-010 0 -3.6325e-017
Spine  37.1654 -2.63485 5.6287
Spine1  -8.49538 -1.03394 -2.42515
HEad  -40.6012 1.99768 -1.97351
LeftShoulder1  9.24085 -16.0153 -41.023
LeftArm  -31.5173 -0.54942 -9.61858
LeftForeArm  2.62652 -36.9352 -8.27404
LeftHand  -0.244104 0.0205437 5.32207
RightShoulder  5.16152 10.6814 30.4317
RightArm  5.21246 -10.3474 21.8636
RightForeArm  -40.3216 34.5074 9.58042
RightHand  -0.187606 -3.98751 -14.5508
LeftUpLeg  -20.5402 4.15384 3.02389
LeftLeg  -0.299364 13.9314 -5.37495
LeftFoot  8.6321 -0.162451 0.623805
LeftToes  1.42787e-010 7.94111e-011 2.6399e-011
279
root  41.3505 40.1143 -2.76292 -17.5059 -84.8267 30.4649
RightUpLeg  -24.2346 -10.6452 -5.61238
RightLeg  6.33553 -7.83325 5.93651
RightFoot  6.92916 0.790514 -4.61496
RightToes  2.32829e-010 0 -3.6325e-017
Spine  37.8128 -2.62659 5.15354
Spine1  -8.20668 -1.26822 -1.44628
HEad  -40.5899 2.73579 -2.01631
LeftShoulder1  9.68501 -15.7 -43.8973
LeftArm  -28.4029 5.65506 -10.2258
LeftForeArm  3.37711 -37.2706 -8.32923
LeftHand  -0.244104 0.0205437 5.32207
RightShoulder  5.24576 10.2838 32.1041
RightArm  10.9014 -19.6638 25.5661
RightForeArm  -38.6518 32.1293 8.83933
RightHand  -0.0820851 -4.82298 -13.5726
LeftUpLeg  -21.9334 4.15372 2.88883
LeftLeg  1.09748 13.9447 -5.08624
LeftFoot  8.17539 -0.218369 0.980103
LeftToes  1.42787e-010 7.94111e-011 2.6399e-011
280
root  41.5772 40.0464 -2.57029 -15.3544 -85.0512 28.7269
RightUpLeg  -25.1122 -10.8156 -5.64004
RightLeg  6.47736 -7.52015 6.11792
RightFoot  7.20276 0.692771 -3.93797
RightToes  2.32829e-010 0 -3.6325e-017
Spine  38.1887 -2.5951 4.22787
Spine1  -7.29731 -1.72837 0.260104
HEad  -40.5108 4.03894 -2.36069
LeftShoulder1  9.8359 -15.2024 -45.8525
LeftArm  -26.5933 11.2594 -11.5935
LeftForeArm  5.10921 -37.4607 -8.2816
LeftHand  -0.244104 0.0205437 5.32207
RightShoulder  5.15225 9.74969 32.9314
RightArm  13.2056 -27.9239 29.8373
RightForeArm  -37.4383 28.9974 7.95314
RightHand  0.0702943 -6.22205 -12.5258
LeftUpLeg  -23.4689 4.27122 2.64353
LeftLeg  2.56761 14.0076 -4.63098
LeftFoot  7.80685 -0.302358 1.51076
LeftToes  1.42787e-010 7.94111e-011 2.6399e-011
281
root  41.8588 39.969 -2.31768 -15.2279 -85.5138 28.8464
RightUpLeg  -25.8683 -11.0108 -5.74942
RightLeg  6.38158 -6.91845 6.30474
RightFoot  7.69902 0.532871 -2.86003
RightToes  2.32829e-010 0 -3.6325e-017
Spine  38.5112 -2.63046 2.83498
Spine1  -5.96913 -2.46409 2.1296
HEad  -40.4986 5.93738 -2.91431
LeftShoulder1  9.64918 -14.5331 -46.6743
LeftArm  -25.7572 16.2109 -13.909
LeftForeArm  7.63387 -37.8399 -8.24147
LeftHand  -0.244104 0.0205437 5.32207
RightShoulder  5.04238 9.33013 33.3459
RightArm  12.9455 -34.9794 33.6538
RightForeArm  -36.784 26.1474 7.21243
RightHand  0.181607 -7.3615 -12.0932
LeftUpLeg  -24.8444 4.74603 2.21194
LeftLeg  4.01714 13.9373 -4.23281
LeftFoot  7.44067 -0.387771 2.07037
LeftToes  1.42787e-010 7.94111e-011 2.6399e-011
282
root  42.1821 39.8876 -2.00825 -20.6047 -86.4238 34.1227
RightUpLeg  -26.3979 -11.1381 -5.86136
RightLeg  6.25495 -6.05767 6.28246
RightFoot  8.41411 0.375518 -1.83537
RightToes  2.32829e-010 0 -3.6325e-017
Spine  39.1748 -2.6419 1.09328
Spine1  -4.78863 -3.2241 3.54959
HEad  -40.3569 8.10863 -3.51411
LeftShoulder1  9.37591 -13.9172 -46.9634
LeftArm  -25.689 20.384 -16.3607
LeftForeArm  9.28245 -38.3889 -8.30554
LeftHand  -0.244104 0.0205437 5.32207
RightShoulder  4.92697 9.02705 33.3746
RightArm  12.4185 -40.7906 36.154
RightForeArm  -36.5874 24.3338 6.79229
RightHand  0.24309 -8.07288 -11.6944
LeftUpLeg  -25.6961 5.74041 1.73837
LeftLeg  5.22671 14.0087 -4.21539
LeftFoot  7.14882 -0.46296 2.57573
LeftToes  1.42787e-010 7.94111e-011 2.6399e-011
283
root  42.5344 39.7939 -1.63239 -45.7048 -87.7144 59.0171
RightUpLeg  -27.008 -11.553 -5.83214
RightLeg  6.35425 -4.08389 6.13254
RightFoot  8.58122 -0.140597 1.12773
RightToes  2.32829e-010 0 -3.6325e-017
Spine  39.9724 -2.50811 -0.757903
Spine1  -4.11155 -3.72256 4.2408
HEad  -40.0705 10.1352 -4.02668
LeftShoulder1  9.21739 -13.546 -47.1787
LeftArm  -25.5226 23.6035 -18.1618
LeftForeArm  9.4159 -38.7391 -8.40445
LeftHand  -0.244104 0.0205437 5.32207
RightShoulder  4.7508 8.76848 32.7693
RightArm  12.3194 -45.3697 37.2529
RightForeArm  -36.2734 23.5982 6.69785
RightHand  0.266688 -8.5973 -10.7446
LeftUpLeg  -26.3142 7.25298 1.36505
LeftLeg  6.30967 14.5314 -4.56334
LeftFoot  6.89953 -0.541625 3.11147
LeftToes  1.42787e-010 7.94111e-011 2.6399e-011
284
root  42.8957 39.6341 -1.2029 -104.34 -88.0656 117.779
RightUpLeg  -28.2 -13.2385 -5.50528
RightLeg  6.77811 -0.0914572 6.14933
RightFoot  6.95457 -1.36461 8.89851
RightToes  2.32829e-010 0 -3.6325e-017
Spine  40.2407 -2.28542 -2.4497
Spine1  -3.98103 -3.84791 4.10287
HEad  -40.0689 11.7024 -4.52347
LeftShoulder1  9.15787 -13.4051 -47.2662
LeftArm  -24.4215 25.7234 -19.178
LeftForeArm  9.84987 -38.842 -8.40893
LeftHand  -0.244104 0.0205437 5.32207
RightShoulder  4.58172 8.62525 31.833
RightArm  11.2529 -48.6521 37.2854
RightForeArm  -35.7653 23.4694 6.6872
RightHand  0.255664 -8.77882 -9.84643
LeftUpLeg  -27.5948 9.12313 0.954261
LeftLeg  8.10235 15.3691 -4.84618
LeftFoot  6.22395 -0.613564 3.72725
LeftToes  1.42787e-010 7.94111e-011 2.6399e-011
285
root  43.2443 39.3891 -0.78421 -141.484 -86.2479 155.287
RightUpLeg  -30.3271 -17.3434 -4.14296
RightLeg  8.33922 5.741 6.03803
RightFoot  3.30283 -2.46044 19.2257
RightToes  2.32829e-010 0 -3.6325e-017
Spine  39.863 -2.09686 -3.98539
Spine1  -4.28059 -3.63772 3.23648
HEad  -40.6649 12.6714 -5.18942
LeftShoulder1  9.16785 -13.4214 -47.2722
LeftArm  -22.7595 26.6345 -19.5396
LeftForeArm  11.8791 -38.8347 -8.27862
LeftHand  -0.244104 0.0205437 5.32207
RightShoulder  4.5287 8.67113 31.2503
RightArm  8.32221 -50.3821 36.5334
RightForeArm  -35.7377 23.3443 6.67956
RightHand  0.234253 -8.52558 -9.8431
LeftUpLeg  -29.5686 11.0347 0.25294
LeftLeg  10.7804 16.1198 -4.81712
LeftFoot  4.99815 -0.653854 4.34206
LeftToes  1.42787e-010 7.94111e-011 2.6399e-011
286
root  43.5911 39.218 -0.410677 -150.754 -84.2573 164.541
RightUpLeg  -33.0967 -22.686 -1.08444
RightLeg  12.5611 10.9777 4.94552
RightFoot  -0.564803 -2.36844 24.483
RightToes  2.32829e-010 0 -3.6325e-017
Spine  39.5555 -1.87215 -4.84544
Spine1  -4.66976 -3.25464 2.30411
HEad  -41.4225 13.1402 -5.97082
LeftShoulder1  9.27461 -13.5486 -47.4698
LeftArm  -21.4309 26.4082 -19.3526
LeftForeArm  14.1776 -38.6678 -8.08239
LeftHand  -0.244104 0.0205437 5.32207
RightShoulder  4.57392 8.80824 31.2024
RightArm  4.7029 -50.2051 35.3136
RightForeArm  -36.351 22.9021 6.71259
RightHand  0.213885 -8.02606 -10.6791
LeftUpLeg  -30.6931 12.6767 -0.218004
LeftLeg  12.4668 16.7682 -4.84652
LeftFoot  4.24363 -0.709745 4.99144
LeftToes  1.42787e-010 7.94111e-011 2.6399e-011
